<svg xmlns="http://www.w3.org/2000/svg" viewBox="0 0 454 66"><g fill="none"><path fill="#000" d="M155.082 0l-30.928 33.335 30.928 33.332h18.149l-30.928-33.335L173.231 0zM0 66.667V0h80.001v13.334h-66.67v13.334h53.34v13.33H13.334v13.335h66.667v13.334H0zm186.46-13.304V0h79.997v13.334h-66.663v13.334h53.329v13.33h-53.33v15.334c-9.04 0-4.988.03-13.334.03v-1.999zM279.684 0h80.002v13.334H293.02V53.33h66.67v13.334h-80.005V0zm140.637 0l32.594 66.667H438.1l-25.183-51.48-25.187 51.476h-14.816L405.513 0h14.809z"/><path fill="#6C3" d="M186.46 53.307h79.921V66.64h-79.997c0-10.364.075-7.272.075-13.334zM111.378 0l30.924 33.335-30.924 33.332h-18.15l30.925-33.335L93.23 0h18.149z"/></g></svg>
