<svg width="528.507" height="142.257" viewBox="0 0 139.834 37.639" xmlns="http://www.w3.org/2000/svg"><path d="m93.986 62.001-8.182 8.82 8.182 8.819h4.802l-8.183-8.82 8.183-8.819z" style="font-style:normal;font-variant:normal;font-weight:400;font-stretch:normal;font-size:133.33332825px;line-height:1.25;font-family:'ISL_FADE TO BLAK';-inkscape-font-specification:'ISL_FADE TO BLAK';letter-spacing:0;word-spacing:0;fill:#fff;fill-opacity:1;stroke:none;stroke-width:.26458332" transform="translate(-42.954 -52.001)"/><g aria-label="execa" style="font-style:normal;font-weight:400;font-size:40px;line-height:1.25;font-family:sans-serif;letter-spacing:0;word-spacing:0;fill:#000;fill-opacity:1;stroke:none"><path d="M2.143 301.001v-66.666h80v13.333H15.476V261h53.333v13.334H15.476v13.333h66.667V301zM188.6 287.697v-53.362h80v13.333h-66.666V261h53.334v13.334h-53.334v15.333c-9.04 0-4.99.029-13.333.029zM281.83 234.335h80v13.333h-66.667v40h66.667V301h-80zM422.467 234.335 455.059 301h-14.815L415.06 249.52 389.874 301h-14.815l32.593-66.666z" style="font-style:normal;font-variant:normal;font-weight:400;font-stretch:normal;font-size:133.33332825px;font-family:'ISL_FADE TO BLAK';-inkscape-font-specification:'ISL_FADE TO BLAK';fill:#fff;fill-opacity:1" transform="matrix(.26458 0 0 .26458 9.433 -52.001)"/></g><path d="M102.288 76.105h21.147v3.528h-21.167c0-2.742.02-1.924.02-3.528z" style="font-style:normal;font-variant:normal;font-weight:400;font-stretch:normal;font-size:133.33332825px;line-height:1.25;font-family:'ISL_FADE TO BLAK';-inkscape-font-specification:'ISL_FADE TO BLAK';letter-spacing:0;word-spacing:0;fill:#4cb11b;fill-opacity:1;stroke:none;stroke-width:.26458538" transform="translate(-42.954 -52.001)"/><path d="m82.423 62.001 8.182 8.82-8.182 8.819h-4.802l8.183-8.82-8.183-8.819z" style="font-style:normal;font-variant:normal;font-weight:400;font-stretch:normal;font-size:133.33332825px;line-height:1.25;font-family:'ISL_FADE TO BLAK';-inkscape-font-specification:'ISL_FADE TO BLAK';letter-spacing:0;word-spacing:0;fill:#4cb11b;fill-opacity:1;stroke:none;stroke-width:.26458332" transform="translate(-42.954 -52.001)"/></svg>